<svg x="0" y="0" width="300" height="300" version="1.1" xmlns="http://www.w3.org/2000/svg" xmlns:xlink="http://www.w3.org/1999/xlink"><g data-paper-data="{&quot;description&quot;:&quot;Logo for LiPTT\n==============\n\nThis logo was generated by MarkMaker and is composed of elements designed by others.\n\nThe font is Work Sans Thin designed by Wei Huang and released under the OFL license via Google Fonts: https://www.google.com/fonts/specimen/Work Sans. The font includes this copyright statement: Copyright (c) 2014-2015 Wei Huang (wweeiihhuuaanngg@gmail.com)\n\nMarkMaker uses semantic data from the Princeton University WordNet database http://wordnet.princeton.edu and font descriptions from Google Fonts https://www.google.com/fonts.\n\nThis design is inspired by designs that past users of MarkMaker have liked. As a result, it may be visually similar to past or future designs generated by the system. There is no guarantee that it is unique, original, or suitable in any way for use as a logo.\n\n&quot;}" fill="#3e4141" stroke="none" stroke-width="1" stroke-linecap="butt" stroke-linejoin="miter" stroke-miterlimit="10" stroke-dasharray="" stroke-dashoffset="0" font-family="sans-serif" font-weight="normal" font-size="12" text-anchor="start" mix-blend-mode="normal"><g data-paper-data="{&quot;elementType&quot;:&quot;logo&quot;}"><g data-paper-data="{&quot;elementType&quot;:&quot;text&quot;}"><g data-paper-data="{&quot;baseline&quot;:66,&quot;elementType&quot;:&quot;row&quot;}"><g data-paper-data="{&quot;baselineProportion&quot;:1,&quot;fontSize&quot;:100,&quot;baseline&quot;:66,&quot;elementType&quot;:&quot;word&quot;}"><path d="M75.87611,183.55752l0,1.48673l-45.87611,0l0,-70.0885l1.69912,0l0,68.60177l44.17699,0z" data-paper-data="{&quot;elementType&quot;:&quot;letter&quot;,&quot;baseline&quot;:66,&quot;baselineProportion&quot;:1,&quot;fontSize&quot;:100}"></path><path d="M87.66372,185.04425l-1.69912,0l0,-53.09735l1.69912,0l0,53.09735z M86.81416,121.53982c-0.70796,0 -1.27434,-0.21239 -1.69912,-0.63717c-0.42478,-0.42478 -0.63717,-0.99115 -0.63717,-1.69912c0,-0.70796 0.21239,-1.27434 0.63717,-1.69912c0.42478,-0.42478 0.99115,-0.63717 1.69912,-0.63717c0.70796,0 1.27434,0.21239 1.69912,0.63717c0.42478,0.42478 0.63717,0.99115 0.63717,1.69912c0,0.70796 -0.21239,1.27434 -0.63717,1.69912c-0.42478,0.42478 -0.99115,0.63717 -1.69912,0.63717" data-paper-data="{&quot;elementType&quot;:&quot;letter&quot;,&quot;baseline&quot;:64.2,&quot;baselineProportion&quot;:1,&quot;fontSize&quot;:100}"></path><path d="M128.65487,114.95575c7.50442,0 13.36283,1.73451 17.57522,5.20354c4.21239,3.46903 6.31858,8.28319 6.31858,14.44248c0,6.15929 -2.10619,10.95575 -6.31858,14.38938c-4.21239,3.43363 -10.0708,5.15044 -17.57522,5.15044l-19.9646,0l0,30.90265l-1.69912,0l0,-70.0885l21.66372,0 M128.65487,152.65487c6.93805,0 12.37168,-1.59292 16.30088,-4.77876c3.9292,-3.18584 5.89381,-7.61062 5.89381,-13.27434c0,-5.66372 -1.9646,-10.10619 -5.89381,-13.32743c-3.9292,-3.22124 -9.36283,-4.83186 -16.30088,-4.83186l-19.9646,0l0,36.21239l19.9646,0z" data-paper-data="{&quot;elementType&quot;:&quot;letter&quot;,&quot;baseline&quot;:66,&quot;baselineProportion&quot;:1,&quot;fontSize&quot;:100}"></path><path d="M212.44248,116.44248l-26.86726,0l0,68.60177l-1.69912,0l0,-68.60177l-26.86726,0l0,-1.48673l55.43363,0l0,1.48673z" data-paper-data="{&quot;elementType&quot;:&quot;letter&quot;,&quot;baseline&quot;:66,&quot;baselineProportion&quot;:1,&quot;fontSize&quot;:100}"></path><path d="M270,116.44248l-26.86726,0l0,68.60177l-1.69912,0l0,-68.60177l-26.86726,0l0,-1.48673l55.43363,0l0,1.48673z" data-paper-data="{&quot;elementType&quot;:&quot;letter&quot;,&quot;baseline&quot;:66,&quot;baselineProportion&quot;:1,&quot;fontSize&quot;:100}"></path></g></g></g></g></g></svg>